<svg width="47" height="48" viewBox="0 0 47 48" fill="none" xmlns="http://www.w3.org/2000/svg">
<path d="M47 24C47 37.2548 36.4787 48 23.5 48C10.5213 48 0 37.2548 0 24C0 10.7452 10.5213 0 23.5 0C36.4787 0 47 10.7452 47 24Z" fill="white"/>
<path d="M25.2678 9.14134C24.2915 8.16503 22.7085 8.16503 21.7322 9.14134L5.82233 25.0512C4.84602 26.0275 4.84602 27.6105 5.82233 28.5868C6.79864 29.5631 8.38155 29.5631 9.35786 28.5868L23.5 14.4446L37.6421 28.5868C38.6184 29.5631 40.2014 29.5631 41.1777 28.5868C42.154 27.6105 42.154 26.0275 41.1777 25.0512L25.2678 9.14134ZM26 36.3636V10.9091H21V36.3636H26Z" fill="black"/>
</svg>
