<svg width="66" height="66" viewBox="0 0 66 66" fill="none" xmlns="http://www.w3.org/2000/svg">
<path d="M66 33C66 51.2254 51.2254 66 33 66C14.7746 66 0 51.2254 0 33C0 14.7746 14.7746 0 33 0C51.2254 0 66 14.7746 66 33Z" fill="#9F9999"/>
<path d="M34.7678 13.2322C33.7915 12.2559 32.2085 12.2559 31.2322 13.2322L15.3223 29.1421C14.346 30.1184 14.346 31.7014 15.3223 32.6777C16.2986 33.654 17.8816 33.654 18.8579 32.6777L33 18.5355L47.1421 32.6777C48.1184 33.654 49.7014 33.654 50.6777 32.6777C51.654 31.7014 51.654 30.1184 50.6777 29.1421L34.7678 13.2322ZM35.5 50V15H30.5L30.5 50H35.5Z" fill="black"/>
</svg>
